<svg version="1.0" xmlns="http://www.w3.org/2000/svg" viewBox="0 0 3072 3072"><g class="fill-current"><path d="M1416 300c-32 1.3-53.8 6-122 26.5-13.5 4-36 10.7-50 14.9-14 4.1-36.3 10.7-49.5 14.6-33.5 9.9-87.7 27.9-106.9 35.5-8.9 3.5-22.8 8.2-31.1 10.5-8.2 2.3-20.1 5.7-26.3 7.6-6.2 1.9-16.3 4.6-22.5 6-6.1 1.4-16.8 3.8-23.7 5.4l-12.5 2.8-42-.2c-32.1-.3-44.1-.7-51-1.9-30.8-5.2-59-16.8-87-35.7-19.9-13.4-27.6-19.5-35.7-28.2l-6.8-7.2v5.5c0 12.6 4.8 41.2 11.1 66.4 7.9 31.4 24 58.4 48.9 81.8 15 14.1 34 25.5 54.8 32.7 5 1.8 9.2 3.5 9.2 3.9 0 .3-9.9.4-22 .3-34.5-.6-51.1 2.5-74.5 14-31.8 15.6-81.4 65.1-129.6 129.3-53.3 70.9-84.3 122.8-150.2 251-30.4 59.4-43.4 82.2-65 114.5-23 34.4-49.4 64.9-72.2 83.3-16.6 13.4-56.2 39.1-73 47.4-22.9 11.2-56 23.8-69.3 26.3-2.9.5-6.1 1.4-7 1.9-3.3 1.7-21.4 5.9-36.8 8.5-8.4 1.5-15.4 2.6-15.8 2.6-1.7 0-.2 3 3.1 6.2 6.3 5.9 12.7 9.6 28.1 16.5 8.1 3.6 25.8 12.3 39.4 19.5 35.4 18.6 51.5 25.8 75.3 33.7 25.3 8.4 37.3 10.7 51.9 9.8 21.7-1.4 45.5-9.7 65.5-22.8 4.1-2.7 7.8-4.9 8.2-4.9 1.7 0 .8 4.7-5.5 30.5-14.5 59-19.1 73.6-39.8 125.5-17.8 44.7-25.8 66.1-32.7 87.3-7.4 23-9.2 32.3-9.8 51.7-.4 15.4-.3 17.2 2.1 26.5 3.1 11.8 7.5 21.4 14.6 32 12.5 18.5 27.9 33.8 74 73.4 48.9 42 67.7 60.6 87.5 86.6 21.1 27.7 32.3 50.5 38.6 78.7 4.3 19.2 3.4 70.6-1.7 90.7-2.9 11.6-10.3 27-17.7 36.6-10.8 14.1-22.8 21.3-44.2 26.7-11.5 2.8-14.6 3.2-27 3.2-12.7 0-15-.3-25-3.2-13.9-3.9-27.3-6.4-32.7-6l-4.2.3 10.6 7.3c5.8 4 21.1 15.4 33.9 25.3 22.4 17.2 52.9 38.5 61.4 42.8 6.3 3.2 30.2 8.9 42.6 10.2 35.6 3.5 77.1-9.6 109.4-34.6 9.1-6.9 25.9-24 31.7-32.2 2.9-4 5.6-6.9 6-6.5.4.4 4.8 13.8 9.7 29.7 14.7 47.8 25.3 75.9 38.2 101.8 5.6 11.2 7.3 15.6 8.4 22.1.7 4.4 2.5 12.6 4 18.1 4.9 18.5 5.3 47.9.9 69.2-2.1 10.5-5.3 18.1-16.4 40.3-11.6 22.9-17.3 30-31.6 39.5-4.7 3.1-8.4 5.8-8.1 6.1.8.8 47.1 14.5 59.2 17.5 19.9 4.8 26.5 5.5 37.5 3.6 40.6-6.9 69.1-24.8 81.6-51.2 2-4.1 3.9-7.5 4.3-7.5.4 0 5.4 3.6 11.2 8.1 5.7 4.5 16.9 12.9 24.9 18.7 20.6 15.1 29 22.4 41.2 35.9 19.1 21.1 29.4 36 36.2 52.5 5.1 12.2 6.6 20.6 6.6 36.2 0 22-4.1 32.4-18.7 47.1-7 7.2-10.6 10-17.8 13.7-5.4 2.8-8.4 4.9-7.5 5.2 4.2 1.4 43.8 11.7 52 13.5 21.7 4.7 34.3 5.3 49.1 2.5 12.5-2.4 33.5-9.6 45-15.5 17.7-9.1 28.5-18.2 33.8-28.6 1.2-2.4 2.8-4.3 3.7-4.3.8 0 4 1.1 7.2 2.4 3.1 1.3 9.8 3.6 14.7 5.1 5 1.5 20.3 7.7 34 13.7 63.5 27.9 75.2 32.3 100.4 37.4 14.2 2.9 47.5 5 62.6 3.9 10.8-.7 24.1-2.9 34.9-5.6 4.3-1.1 8.4-1.8 9-1.6 1.4.6 17.7 26.2 23.4 36.7 5.5 10.2 15.3 33.4 19 45 5.1 16.1 7.3 25.8 8.8 39.9 1.8 17.7 1.8 24.5-.2 28.3-2.8 5.4-10.6 12.8-17.9 17-3.8 2.3-13.7 8.7-22 14.4-28.5 19.4-49.4 31.3-68.5 39.1-9.6 3.9-22.1 8.6-27.7 10.4l-10.3 3.3-2.7-2.6c-4.1-3.9-10.7-6.5-19.9-7.7-14.7-2-27.3.8-77.4 17.6-44.3 14.7-61.5 21.8-83.4 34-26.6 14.8-39.1 25.5-45.9 39.1l-4.2 8.4-8 2.8c-17.1 6-33 13.9-55.4 27.8-27.3 16.8-46.2 34.4-66.9 62-11.6 15.7-20.8 30.7-31.2 51.2-7.2 14.3-20 42.8-20 44.6 0 .2 4.2.4 9.4.4h9.4l1.7-5.2c4.1-12.7 17.8-38.7 28.3-53.8 13.4-19.2 35.8-42.6 53.2-55.7 16.8-12.5 38.4-25.3 45.5-26.8 1.7-.4 9.6-3.8 17.7-7.8 8.1-3.9 15.1-6.8 15.5-6.4.3.4.1 8-.6 17-3.2 44.1-5.5 107.3-4.5 125.9l.7 12.8h208.3l-.4-44.8c-.6-62.6 1.7-108.4 6.3-125.7 1.3-5 3.1-14.6 4-21.5 2.1-16.9 5.1-33.1 7.8-41.4 2-6.4 2.5-7.1 7.7-10.4 3-1.9 8-4.5 11.2-5.8 3.1-1.2 12.3-6.2 20.5-11.1 8.2-5 23.6-13.6 34.3-19.3 31.1-16.4 38.4-20.7 74.4-44.5 12.1-8 15.6-10.9 19.2-15.7 7.5-10.2 10.5-17.6 11.6-28 1.2-11.3.3-36.3-1.7-47.6-4.6-26.6-15.7-54.9-31-79.2-7.4-11.8-8.8-15.5-8.3-21.9.3-4.4.4-4.5 4.8-5.6 2.5-.7 11.3-4.1 19.5-7.8 8.3-3.6 21.3-9.3 29-12.7 22-9.6 42.9-21.2 85.5-47.3 28.9-17.6 49-31 69-45.6 8-5.9 16.9-12.4 19.8-14.5 4.7-3.4 7.2-6.2 7.2-8.1 0-2.5-13.6 4.2-46 22.5-47.2 26.7-111.4 60.2-146.9 76.5-29.5 13.5-73.8 29.5-92.9 33.4-14.1 2.9-37.7 4.3-51.7 3.1-18.2-1.6-38.4-6.2-61.1-14.1-15.4-5.3-17.3-6.1-53.9-23.2-49.6-23.1-71-35-122.5-68-32.8-21.1-45.1-29.6-81.5-56.6-46.5-34.5-82.5-59.7-102.1-71.6-31.7-19.2-41.1-26.5-66.9-52.1-39.5-39.2-69.5-83.7-91.3-135.4-6.6-15.7-24.5-66-31.1-87.5-11.7-38.4-22-89.2-28.6-141.4-.9-6.8-3.4-22.1-5.5-34-7.3-40.2-21.8-138.7-24.4-166.1-3.2-32.1-5.9-110-3.9-110 .6 0 5.2 5.2 10.2 11.4 21.7 27.1 41.7 41.2 85.6 60.6 7.7 3.4 18.3 8.4 23.5 11.2 10.3 5.4 26.1 15.4 27.2 17.1.4.6-2.4 4.4-6.2 8.4-8 8.3-12.9 17.3-13.7 24.7-.4 4.5-.2 5.4 2 7.5 2.3 2 3.3 2.3 8.2 1.9 5.4-.5 5.7-.7 14.8-9.4 5-5 11.2-10.6 13.7-12.6 21.9-17.3 51.1-30.8 77.7-36 17.1-3.2 46.8-3.3 59.6-.1 4.8 1.3 10.1 2.9 11.6 3.8 1.6.8 8.8 8.3 15.9 16.7 7.1 8.4 16.4 19 20.6 23.6 4.2 4.5 7.6 9 7.7 10v19.7c0 9.9.3 19.8.7 21.9l.7 3.9 10.2 1.7c6.2 1.1 11.5 2.6 13.7 3.9 7.6 4.7 9.8 13.7 5.2 21-3 4.7-7.5 6.9-16.6 8-4 .5-7.4 1.2-7.7 1.4-1.7 1.7 11.1 54.2 17.7 72.9 5.1 14.4 16.2 37.2 22.8 47 10.8 15.9 23.4 23.7 34 20.9 14-3.8 23.1-18.1 27.9-44.1 1.5-7.8 1.8-14.8 1.7-39.5 0-16.5-.5-33.2-1.1-37-.6-3.9-.7-7.4-.2-7.9.4-.5 5.9 9.7 12.3 22.6 14 28.8 17.5 33.3 23.9 30.9 4.1-1.6 5.7-6 6-16.4.1-8.1-.2-10.3-3.1-18.3-1.7-5-3.2-9.4-3.2-9.8 0-.3.9-.6 2-.6 2.9 0 2.5-1.1-2.1-5.5-3.6-3.5-9.7-14.1-8.6-15.1.2-.2 5.3 5.8 11.4 13.4 21.5 26.6 46.8 54.1 63.3 68.6 51.4 45.4 66.4 58 84 70.7 29.6 21.4 39.1 26.6 85.5 46.4 38.4 16.5 95.2 38.1 97.8 37.2 1.3-.4-6-6.3-20.3-16.7-36.9-26.7-63.6-55.4-85.6-92-6.4-10.7-18.8-36.4-21.4-44.5-.7-2.2-4.2-10.4-7.7-18.3-7.6-16.8-9.6-24.6-11.9-44.7-3.3-30 .2-66.8 10.1-105.1 8.4-32.3 18.5-61.4 36.5-104.9 26.8-64.9 30-73.1 47.6-124.5 14.2-41.4 19.5-59.2 24.4-83 2.1-10.2 3.9-17.8 3.9-17 .1.8.5 5.3 1.1 10 1.7 15.5 4.4 45.4 7.5 82.5 1.9 22.7 4.3 73.2 4.7 98l.3 18.9-9.6 3.8c-5.3 2.1-13.8 4.5-18.8 5.3-10.7 1.9-12.9 1.4-23.1-4.5-8.4-4.9-11.9-5.7-15-3.2-2.3 1.8-2.3 2.2-1.1 6.1 4.2 14.2 21 19.8 45.2 15.2 13.3-2.6 19-3.8 21.4-4.7 1.7-.7 1.8.5 1.1 23.2-.4 13.1-1.1 39.9-1.6 59.4-1 39.8-2.3 52.3-8.9 84.8-5.3 25.7-10.7 45.2-19.2 69.1-7.2 20.1-7.9 23.1-5.4 23.1 4 0 14.3-12.5 28.7-35 14.9-23.2 30.3-40.9 79.8-91.5 24.7-25.3 38.8-40.5 49.7-53.6 10.7-12.9 22.5-19.2 47.4-25.3 20.4-5 39.4-6.8 71.4-6.9 25.3-.1 31 .2 44.5 2.2 18.5 2.7 42.1 8.5 59.7 14.6 20 6.8 20.1 6.9 22.4 12.3 2.8 6.5 8.3 29.3 10.5 43.7 2.3 15.2 2.7 61.9.5 76-2.2 14.8-5 27.4-7.1 32.1-3.4 7.7-21.5 27.9-38.6 42.9-4.3 3.8-13.7 12.5-20.8 19.3-21.1 20.1-39.6 34.2-65.4 49.6-28.8 17.2-42.3 20.6-83.2 20.6-12.7 0-27.4-.5-32.8-1.1-15.9-1.7-38-6.5-51.7-11.3-7.1-2.5-13.1-4.3-13.4-4.1-2 2.1 30.8 11.2 61.4 17.1 12.6 2.5 16.3 2.7 37 2.8 19.4 0 25.6-.3 40-2.4 15-2.2 20.2-2.5 44.5-2.4 21.7.1 29.3.5 36 1.8 30.8 6.2 66.2 11.4 83 12.2 32.2 1.5 68-6.5 103.2-22.9 33.9-15.9 64.1-42.7 80.7-71.5l3.6-6.4.8 3.4c2.4 9.4 9.9 31.9 12 35.8 13.9 26.5 23.5 38.4 41.5 51.8 9.5 7 35 20.2 51.6 26.7 10.7 4.2 12.1 4.5 20.8 4.5 23.4-.1 58.5-5.5 61.9-9.6.9-1.1-.1-2.7-4.6-7.6-13.5-14.9-28.5-41.9-36.4-65.3-9.7-29.1-15.3-51.3-17.2-69-1.3-12-1.8-45.9-.7-47 .4-.4 2.2.5 4 1.9 9.7 7.4 27.4 11.9 44.6 11.4 6.1-.2 11.2 0 11.2.5 0 .4-2.2 3.5-4.9 7-12.6 16.1-27.2 40.5-30.1 50.2-1.4 4.7-1 11 .7 11 1.5 0 15-13 21.3-20.6 2.7-3.2 8.1-10.4 12-15.9 5.9-8.3 20.9-27.9 24.1-31.4 1.5-1.6 8.9 5.5 11.9 11.5 4.4 8.6 8 22 8 29.6 0 23-16.3 48.7-47.2 74.4-5.9 5-10.8 9.7-10.8 10.5 0 1.9 3.6 9.1 5 9.9 3.3 2 20.8-12.9 35.8-30.5 2.6-3 8.4-9.7 12.9-14.8 9.4-10.8 16.7-24.2 18.4-33.7 2.1-11.6-.9-28.6-7.5-43.1-4-8.5-10.6-18.4-14.2-21.3-1.4-1.1-2.3-2.5-1.9-3 .3-.6 5.3-4.3 11.1-8.2 12.8-8.7 29.5-24.5 38-35.8 7.5-10.1 13.2-14.3 23.9-17.8 6.7-2.2 9.8-2.6 19-2.6 6.8 0 13 .6 16.3 1.5 2.9.8 5.4 1.2 5.7.8.2-.3-.7-2.9-1.9-5.6-1.9-4.1-3.2-5.5-6.8-7.1-8.4-4-17.1-4.5-31-1.8l-3.7.7 3.9-9.9c5-13.1 6.5-19.9 5.1-23.7-.8-2-1.5-2.5-2.4-1.8-13.8 11.1-25.4 17.4-40.2 21.8-7 2-11.9 2.7-22.1 3.1-16.2.7-25.2-.7-34.4-5.4-8.1-4-12.7-8.9-17.7-18.7l-3.5-6.9 1.9-3.4c5.2-9.9 24.7-22.9 42.9-28.6 8.2-2.6 26.1-5.7 32.8-5.7 13 0 29.7 7.2 43.9 19 14.5 12 24.8 25.4 35.2 46 9.6 19.1 11.7 24.1 15 36.5 1.3 4.9 3.3 12.4 4.4 16.5 3.5 13.2 5.6 50.6 3.2 59.7-.5 2.1-1.2 7.2-1.6 11.3-2.3 27-12 60.1-23.2 79.5-11.2 19.3-24.8 36.1-50.3 61.5-19.4 19.4-30 28.4-48.9 41.9-15.3 11-21.6 14.5-42.7 24.2-35.7 16.3-52.7 20-81.9 18-26.6-1.9-43.2-7.2-61.9-19.9-23.2-15.7-25.8-17.4-29.2-18.8-1.9-.8-3.4-1.8-3.4-2.3 0-1.3 6.5-20.5 11.7-34.6 2.4-6.6 4.1-12.9 3.8-14-.5-2.2-12-14.5-13.4-14.5-.5 0-1.1 1.9-1.3 4.2-.3 2.4-3.6 12.4-7.2 22.3-3.7 9.9-10.5 28.2-15.2 40.7-9.5 25.6-27.4 67-37 85.8-6.8 13.5-26 43.8-34.9 55.3-18.2 23.3-56.5 61.1-91 89.7-4.9 4.1-12.8 10.8-17.5 14.9-12.5 10.8-33.8 26.6-39 28.8-2.5 1.1-7 4.2-10 7-6.2 5.7-17.7 13.3-45.4 30-35.3 21.3-40.9 25.6-58.2 44.2-4.3 4.7-7.4 8.6-6.8 8.8 1.1.4 54.5-25.7 68.3-33.3l8.3-4.6-.6 3.8c-.3 2.2-.8 7.9-1.1 12.9-.4 4.9-1.3 15.7-2.1 23.9-1.9 20.5-1.9 85.5.1 107.1 4.4 47.2 13 87.5 25.6 119.2 6.7 17 22.5 45.7 31.6 57.6 39.4 51.3 96.3 92.2 167.7 120.3 10.9 4.3 20.1 8.4 20.3 9.1.3.6-1.2 4.9-3.3 9.5-4.1 9.1-16.1 45.1-18.9 56.8-1 4.1-4.1 15.4-6.7 25-18 64.4-30.8 124.9-30.8 145.7v10.3h233.5v-11.3c0-23 4.3-72 8.5-97 2.8-16.2 13-56.3 18-70.7 2.2-6.3 4-12.6 4-14 0-3.4 4.2-15.1 5.6-15.7.6-.2 6.7 1.7 13.5 4.2 27.6 10.4 71.2 36.3 96.4 57.4 17.9 14.9 45.2 45.2 62 68.6 14.1 19.8 35 61.7 36.2 72.6l.6 5.9h19.7v-4.5c0-9.6-22.4-59.5-37.5-83.5-22.7-36-53.6-68.1-87.6-91.1-20.2-13.6-49.3-28.7-76.6-39.9-8.1-3.4-17.7-7.3-21.2-8.7-5-2.1-8.1-4.4-15-11.2-8.1-8.2-9.2-8.9-20.1-13.4-14.8-6.1-22-8.5-47.4-15.8-22.5-6.5-41.4-11.1-56-13.4-17.5-2.9-44.9-1.5-57.3 2.9-3.5 1.2-9.2 4.6-13.8 8-2.4 1.8-46.5-17.3-58.3-25.3-3.4-2.3-13.5-8.6-22.4-13.9-44.3-26.7-55-34.3-70.7-50.8-10.3-10.8-18-21.8-29.4-42.4-21.6-39.2-33.5-78.9-40.1-134.5-2.4-19.7-2.2-20.3 2.9-8 7.8 18.9 23 38.1 40 50.6 7.3 5.3 22.5 13 31.5 15.9 3.6 1.1 11 3.1 16.5 4.3 9.4 2.1 12.1 2.2 46 2 33.5-.1 65.5-1.6 69.8-3.2 1.3-.5-.3-1.3-5.5-3-19.1-6.1-37.5-17.7-51.5-32.6-16.3-17.2-23.2-28.3-27.4-44.1-4.1-15.5-1.9-41.1 5.2-59.4 9.3-24.1 40.9-66.1 84.3-112 8.1-8.5 21-22.4 28.8-30.8 7.8-8.3 14.3-15 14.5-14.8.3.2 1.1 3.6 1.9 7.6 6.7 32.4 28.8 65.8 57.9 87.6 11.4 8.6 33.9 21.3 46.7 26.3 15.3 6 22.8 7.4 40.3 7.5 27 0 40.6-4.3 66-20.9 11.7-7.6 14.4-10 12.9-11.5-.5-.5-5.9-2.2-12.1-3.9-14.7-4-20.1-6.1-28.5-11.2-14.7-8.9-26.7-24.7-32.7-42.9-2.5-7.5-4-23-2.3-23 .6 0 4.9 3.9 9.4 8.6 10.1 10.5 17.5 16.4 29.6 23.7 22.8 13.7 45.8 18.9 88.2 20.2 11.3.3 24.3 1.2 29 2 8.2 1.3 36.9 3.2 42 2.8 4.9-.4 7-1.4 8.6-3.8 2.1-3.3 1.6-3.9-11-12.5-32.6-22.3-56.7-55.4-65.5-90.1-9.8-38.6.7-85.9 28-126 16.7-24.4 38.1-45.4 81.9-80 26.1-20.6 60.8-52.8 73.9-68.4 28.6-34.4 43.4-74.2 49.2-133 1.7-17.3 1.4-73-.5-95-.9-9.8-1.6-20.9-1.6-24.5 0-8.6 1.1-17 2.1-17 .5 0 .9.6.9 1.3 0 .7 1.6 4.5 3.5 8.5 14.2 29.7 40.3 48 74.5 52.2 28.1 3.4 49.7-.7 73-14.1 27.9-15.9 43.6-28.2 64.5-50.3 12-12.7 23.8-26.6 23.1-27.3-.2-.2-6.4 1.4-13.9 3.6-18.1 5.3-27.1 6.5-43.1 5.8-33.2-1.5-53.2-12.8-78.3-44.3-30.6-38.5-45.8-77.2-53.3-136-6.8-52.9-5-99.6 8-211.4 2.1-18.4 4.5-40.3 5.2-48.5 1.7-20 1.7-68.2 0-80-3.6-23.9-10.6-45.2-23.8-72.4-17.6-36.3-29.7-54.7-67.8-103.1-10.2-12.9-204.9-256.5-214.3-268l-2.3-2.8 2.8-1.1c1.5-.6 5.7-1.8 9.4-2.6s8-2 9.5-2.6c1.6-.6 6-1.1 10-1 13.2.3 24.2-5.7 40.4-21.8 14.3-14.3 20.2-23.9 23.9-38.2 4.1-15.9 1.7-33.4-7.5-53.9-9.7-21.7-20.4-45-24.3-53-4.6-9.5-15.5-28.1-19.8-33.7l-2.8-3.7-2.2 7c-3.4 11-6.2 17.2-10.8 24.3-8.9 13.5-17.2 19.1-39.7 26.6-22.1 7.3-27.9 8.5-42.6 8.5-33.5 0-73.7-15-118.8-44.5-27.1-17.7-39.3-27.4-84.5-67.5-44.2-39.3-64.1-54.5-89.5-68.7-23.6-13.2-36.4-18.1-54-20.8-23.6-3.7-75.8-.5-134.5 8-29.9 4.4-72.2 13-81.2 16.6-2.7 1-5.8 1.9-6.8 1.9-1.1 0-8.9-3-17.3-6.7-14.4-6.3-15.7-7.2-23.8-14.9-11-10.3-12-11-44.9-29.9-59.1-34-97.4-51-131.5-58.5-22.5-5-42.4-6.3-75.5-5zM858 1385.1c1.2 11 3.4 24.6 6 37.9 3.9 19.5 7.2 34.5 7.6 35.2.8 1.2.4 1.1-11.2-3.6-6-2.4-12.7-4.9-14.9-5.6-2.2-.7-4.3-1.6-4.8-1.9-.7-.7 2.1-14.3 6.8-33.1 1.3-5.2 3.6-15.1 5-22 3.5-17 3.5-17.3 4-16.8.2.2.9 4.7 1.5 9.9zm888.4 49c3.1 8.6 7.8 21 10.6 27.5 2.7 6.5 4.7 12.1 4.2 12.5-.8.9-36.8 17.9-37.8 17.9-.3 0-.3-.8.1-1.7 1.6-4.4 8.7-34.6 12-51.3 3.8-19.4 4.3-21.5 4.9-20.9.2.2 2.9 7.4 6 16zm-890.3 36.7c22 8.7 21.6 8.5 22.4 12.4 1.4 6.3 12.6 38.9 18 52.3 12.8 31.6 33.6 70.7 50.7 95.4 2.1 3 3.8 5.7 3.8 6.1 0 .4-4.4 1-9.7 1.3-27.8 1.7-44.1 4.2-57.6 8.9-9.6 3.3-27.9 10.7-30.4 12.4-1.2.7-2.5 1.4-2.8 1.4-1.9 0-9.8-24.5-13.8-43-5.4-24.4-7.7-49.1-7.8-83.1 0-20.8.9-33.2 4.2-54.9 2.3-15.8 2.7-17.3 4.2-16.7.7.3 9.1 3.6 18.8 7.5zm927.3 46.7c16 31.5 30.2 61.1 39.3 81.5 11.3 25.4 24.2 58.5 23.1 59.5-.3.3-7.4-1.3-15.9-3.4-8.5-2.2-19-4.4-23.4-5-50.4-6.8-58.9-7.5-93-7.5-26 0-32.6.3-41 1.8-5.5 1-11.3 2.1-12.9 2.4l-3 .5 2.4-3.9c16.6-28 34.1-62.1 40.8-79.4 7.7-20.2 8.9-23.6 12.7-36 2-6.9 4.2-13 4.8-13.7 1.9-1.9 51.1-25.1 51.8-24.4.4.3 6.8 12.7 14.3 27.6zM1073 1668.7c2.4 5.4 6.1 13.5 8.2 18.1 2.2 4.6 3.8 8.5 3.6 8.7-.2.3-2.3-1.4-4.5-3.8-3.5-3.6-4.6-5.9-7.6-15.7-6.1-20.1-6-21.9.3-7.3zm784 203.5c-2.9 7.7-13.9 26.8-20.6 35.5-10.8 14.1-25.3 26.9-40.1 35.3-8.7 5-28.2 13-33.2 13.6l-3.6.5 2.5-1.8c27.2-19.8 47.7-38.5 78.3-71.2 10-10.6 18.3-18.9 18.4-18.4.2.6-.5 3.5-1.7 6.5z"/><path d="M1636.2 1695.4c-5.1.8-9.3 2-11 3.2-6.7 5-13.6 19.9-17.8 38.4-3.3 15.1-4.4 25.4-4.4 42.7 0 17.6-1.2 16.2 11.7 13.7 13.3-2.7 21.3-.3 25.3 7.5 3.4 6.7 2.5 12.2-3 18.4-3.4 3.9-10.5 6.7-22.4 8.9-3.7.6-7 1.7-7.2 2.3-.8 1.9 6.5 33.1 10.7 46.1 4.4 13.6 16.2 38.2 23.8 49.5 6.1 9.1 16 18.7 22.7 22 17.6 8.5 34.6-2.4 43.5-27.8 4.4-12.6 6.1-41.2 3.9-64.8-.5-5.5-1.4-18.8-2-29.5-1.2-22.8-3.5-37.4-9.6-62.4-6.7-26.9-14.8-42.5-30.1-57.9-11.4-11.5-16-12.8-34.1-10.3zM839 1832.9c0 1.5 5.1 8.5 9.9 13.6 2.6 2.7 11.3 12.4 19.2 21.5 16.6 19.1 48.9 51.8 63.4 64.2 34.9 29.8 65.2 46.4 93.5 51.4 7.4 1.3 13.3 1.5 26.5 1.1 15.2-.5 18.1-.9 27.4-3.7 11.3-3.3 20.1-7.4 26.4-12 2.3-1.7 3.8-3 3.5-3-.3 0-6.8 2.3-14.3 5-21.3 7.9-24 8.4-47.5 8.4-18.4.1-21.4-.1-29-2.2-21.8-6-50.3-21.8-76-42.2-11.6-9.2-66-63.4-83.2-83-6.1-6.9-12.6-14.2-14.5-16.3-3.3-3.6-5.3-4.6-5.3-2.8zm820.5 241.5c-7.2 2.6-16.2 7.5-30.5 16.6-5.8 3.7-13.7 8.4-17.7 10.3-9.3 4.8-39.9 16.4-69.3 26.5-40.4 13.9-57.3 19.9-64 23-8.3 3.8-28.8 10.4-57.1 18.6-46.2 13.2-78.5 19-118.4 21.2-7.1.4-14.1 1-15.5 1.4-2.4.7-2.3.8 1.5 1.8 6 1.7 18.5 1.4 36.2-.8 28.9-3.7 55.3-8.4 80.3-14.4 5.8-1.3 18.2-4.1 27.5-6.1 28.2-6.1 80.6-21.9 97-29.3 9.7-4.4 25.1-10.2 49-18.7 8.3-2.9 16.6-6 18.6-6.8 2.2-1 4-1.2 5-.7 1.2.8.7 2.4-2.8 9.2-6 11.8-17 28.3-23.5 35.3-3.1 3.4-7.9 7.3-10.7 8.9-5.6 3-29.2 12-40.8 15.5-4 1.2-7.5 2.6-7.8 3.1-2.2 3.6 30.1-3.9 43.4-10 3.5-1.7 6.5-3 6.7-3 2.6 0-5.2 17.8-12.5 28.4-11.2 16.3-31.6 28-71.6 41.1-24.8 8.2-30.5 10.3-30.5 11.7 0 2.2 20.1-1.8 35-7 29.6-10.4 50.2-20.9 61.7-31.5 7-6.4 18.3-22.9 29.2-42.4 33.3-59.9 37.1-63.9 80.1-84.2 14.8-6.9 20.4-13.7 15.2-18.4-2.5-2.3-6.5-2.1-13.7.7zm-593.9 84.7c-5.1 1.2-7.4 3.3-8.2 7.4-1.6 8.9 6.7 12.8 32.3 15 11.5 1 36.4 8.6 42.4 12.9 1.6 1.2 7.5 5.3 13.2 9.3 12.1 8.4 26.8 21.6 36.4 32.8 9.9 11.6 13.1 14.7 14.5 14.3 2.5-.9 1.8-3.6-2.7-10.3-2.5-3.7-4.5-7.1-4.5-7.4 0-.4 5.8-.5 13-.3 13.1.4 22-.3 22-1.7 0-.5-3.9-1.1-8.7-1.5-19.1-1.6-32.2-6.1-46.5-16-13.5-9.4-26.8-19.8-26.8-20.9 0-1 9.3-.5 25.5 1.3 9 1 54.8 1.3 58.3.4 1.2-.4 2.2-1.2 2.2-1.9 0-.9-3.1-1.4-10.2-1.9-27.4-1.8-56.7-6.4-72.8-11.3-6.3-2-13.5-4-15.9-4.5-2.5-.6-11.2-3.5-19.3-6.5-22-7.9-36.6-11-44.2-9.2z"/><path d="M1393 2221.1c-5.2.4-14.2 1.5-20 2.4-5.8.9-13.9 2-18.1 2.4-4.2.5-8.4 1.3-9.5 2-1.5 1-.6 1.1 4.6.5 11.3-1.1 56.3-7.3 56.8-7.9.6-.6-.7-.5-13.8.6zm-186.4 38c9.8 10.9 66.2 20 114.9 18.5 30.5-.9 69.1-5.4 74.4-8.6 1.2-.8 1-.9-.9-.6-4.9 1-30.8 2.6-56.8 3.6-28.3 1.1-57.2.2-80.6-2.5-13.8-1.6-16.1-2.2-36-8.4-7-2.3-13.7-4.1-14.9-4.1-2 0-2 0-.1 2.1z"/></g></svg>