<svg xmlns="http://www.w3.org/2000/svg" version="1.0" viewBox="0 0 3072 3072"><path d="M1416 300c-32 1-54 6-122 27l-50 14-49 15a1804 1804 0 0 0-138 46 1457 1457 0 0 0-49 14l-24 5-12 3h-42l-51-2c-31-5-59-17-87-36-20-13-28-19-36-28l-7-7v5c0 13 5 41 11 67a165 165 0 0 0 113 118h-22c-34 0-51 3-74 14-32 16-82 65-130 130-53 70-84 122-150 251-31 59-44 82-65 114-23 34-50 65-73 83a383 383 0 0 1-202 87c-1 0 0 3 4 6 6 6 12 10 28 17l39 19c36 19 52 26 75 34 26 8 38 11 52 10 22-2 46-10 66-23l8-5a718 718 0 0 1-45 156l-33 87a154 154 0 0 0-8 79c3 11 8 21 15 32 12 18 28 33 74 73 49 42 68 61 87 87 22 27 33 50 39 78 4 19 4 71-2 91-3 12-10 27-17 37a71 71 0 0 1-45 26c-11 3-14 3-27 3-12 0-15 0-25-3-13-4-27-6-32-6l-4 1 10 7 34 25c22 17 53 39 61 43 7 3 31 9 43 10 36 4 77-10 109-35a209 209 0 0 0 38-38l10 29a643 643 0 0 0 47 124 178 178 0 0 1 4 88c-2 10-5 18-16 40-12 23-17 30-32 40l-8 6 59 17c20 5 27 6 38 4 41-7 69-25 82-52l4-7 11 8 25 19a229 229 0 0 1 77 88c6 12 7 21 7 36 0 22-4 33-19 47-7 8-10 10-17 14l-8 5 52 14c22 5 34 5 49 2 13-2 34-9 45-15 18-9 29-18 34-29l4-4 7 2 15 5 34 14c63 28 75 32 100 38 14 2 47 5 63 3a211 211 0 0 0 43-7c2 1 18 26 24 37l19 45c5 16 7 26 9 40 1 18 1 24-1 28-2 6-10 13-17 17l-22 15a377 377 0 0 1-97 49l-10 3-3-2c-4-4-10-7-20-8-14-2-27 1-77 18-44 14-61 21-83 34-27 14-40 25-46 39l-5 8-8 3a272 272 0 0 0-153 141l-20 45h19l1-5a280 280 0 0 1 82-109c17-13 38-26 45-27l18-8 16-7-1 17c-3 44-5 108-4 126v13h209l-1-45a658 658 0 0 1 18-188c2-7 3-8 8-11l11-6 21-11 34-19a651 651 0 0 0 94-60c7-10 10-18 11-28a204 204 0 0 0-33-127c-7-12-8-15-8-22 0-4 1-4 5-6l19-7 29-13a942 942 0 0 0 182-115c0-3-14 4-46 22-47 27-111 60-147 77-29 13-74 29-93 33-14 3-38 4-52 3-18-2-38-6-61-14-15-5-17-6-54-23a1173 1173 0 0 1-204-125c-46-34-82-60-102-71a414 414 0 0 1-158-187l-31-88a895 895 0 0 1-34-176c-7-40-22-139-24-166-4-32-6-110-4-110l10 11c22 28 42 42 85 61a421 421 0 0 1 51 28c1 1-2 5-6 9-8 8-13 17-14 24 0 5 0 6 2 8 3 2 4 2 8 2 6-1 6-1 15-10l14-12c22-17 51-31 78-36 17-3 46-3 59 0l12 4 16 16a1028 1028 0 0 0 28 34v20l1 21v4l11 2 13 4c8 5 10 14 6 21-3 5-8 7-17 8l-8 1c-1 2 11 55 18 73 5 15 16 37 23 47 11 16 23 24 34 21 14-4 23-18 28-44 1-8 2-15 1-39a437 437 0 0 0-1-45c1-1 6 9 12 22 14 29 18 34 24 31 4-1 6-6 6-16 0-8 0-11-3-19l-3-9 2-1c3 0 3-1-2-5-4-4-10-15-9-16l12 14a931 931 0 0 0 147 139c30 22 39 27 86 47 38 16 95 38 97 37s-6-7-20-17a301 301 0 0 1-115-155c-7-17-9-24-12-44-3-30 1-67 11-106 8-32 18-61 36-104a1558 1558 0 0 0 76-225l1 10a3919 3919 0 0 1 12 181l1 18-10 4-19 6c-11 1-13 1-23-5-8-5-12-6-15-3-2 2-2 2-1 6 4 14 21 20 45 15l22-5 1 24-2 59a482 482 0 0 1-28 154c-7 20-8 23-5 23 4 0 14-12 28-35 15-23 31-41 80-91l50-54c10-13 22-19 47-25 21-5 40-7 72-7a244 244 0 0 1 104 17c20 6 20 6 22 12a273 273 0 0 1 11 120c-2 14-5 27-7 32-3 7-21 28-39 43l-20 19c-21 20-40 34-66 49-29 18-42 21-83 21l-33-1a267 267 0 0 1-65-15 229 229 0 0 0 99 19c19 0 25 0 40-2s20-2 44-2l36 1c31 7 66 12 83 13 32 1 68-7 103-23 34-16 64-43 81-72l4-6v3l12 36c14 27 24 38 42 52 9 7 35 20 51 27 11 4 13 4 21 4 24 0 59-5 62-10 1-1 0-2-4-7-14-15-29-42-37-65-10-30-15-52-17-69-1-12-2-46-1-47s2 0 4 1c10 8 28 12 45 12h11l-5 7c-12 16-27 41-30 51-1 4-1 11 1 11 1 0 15-13 21-21l12-16 24-31c2-2 9 5 12 11 4 9 8 22 8 30 0 23-16 48-47 74l-11 11 5 10c3 2 21-13 36-31l13-15c9-11 16-24 18-33 2-12-1-29-7-44-4-8-11-18-15-21-1-1-2-2-1-3l11-8c12-9 29-25 38-36 7-10 13-14 24-18 6-2 9-2 19-2l16 1 6 1-2-6c-2-4-4-5-7-7-9-4-17-4-31-1h-4l4-10c5-13 7-20 5-23-1-2-1-3-2-2-14 11-26 17-40 22-7 2-12 2-23 3-16 0-25-1-34-6-8-4-13-9-18-18l-3-7 2-4c5-10 24-23 43-28 8-3 26-6 32-6 13 0 30 7 44 19 15 12 25 25 36 46 9 19 11 24 15 37l4 16a210 210 0 0 1 2 71c-3 27-12 60-24 80-11 19-24 36-50 61a333 333 0 0 1-92 66c-35 16-52 20-81 18-27-2-44-7-62-20a223 223 0 0 0-33-21 496 496 0 0 1 16-48c-1-3-12-15-14-15l-1 4-7 23-16 40a502 502 0 0 1-72 141 705 705 0 0 1-157 141l-45 30a200 200 0 0 0-65 53l68-34 8-4v4l-1 13-3 23c-1 21-1 86 1 108 4 47 13 87 25 119 7 17 23 45 32 57 39 52 96 93 167 121l21 9s-1 5-4 9c-4 9-16 45-18 57l-7 25c-18 64-31 125-31 146v10h234v-11c0-23 4-72 8-97a689 689 0 0 1 28-101l13 5c28 10 71 36 97 57 17 15 45 45 62 69 14 19 35 61 36 72v6h20v-4a314 314 0 0 0-202-214l-21-10c-5-2-8-4-15-11-8-8-9-9-20-13-15-6-22-9-47-16-23-7-42-11-56-13-18-3-45-2-58 2l-13 8a252 252 0 0 1-81-39c-44-26-55-34-71-51a330 330 0 0 1-69-176c-3-20-3-21 3-8 7 18 23 38 40 50a143 143 0 0 0 48 20c9 2 12 3 46 2 33 0 65-1 69-3 2 0 0-1-5-3-19-6-38-18-52-32a95 95 0 0 1-27-45c-4-15-2-41 5-59 9-24 41-66 84-112 9-8 21-22 29-31l15-15 2 8c6 32 28 66 58 88 11 8 33 21 46 26 16 6 23 7 41 7 27 0 40-4 66-20 11-8 14-10 12-12l-12-4c-14-4-20-6-28-11-15-9-27-25-33-43-2-7-4-23-2-23l9 9c10 10 18 16 30 23 23 14 46 19 88 21l29 2c8 1 37 3 42 2 5 0 7-1 9-3 2-4 1-4-11-13-33-22-57-55-66-90-10-39 1-86 28-126 17-24 38-45 82-80 26-21 61-53 74-68 29-35 43-75 49-133a841 841 0 0 0-2-120c0-9 1-17 2-17l1 1 4 9c14 30 40 48 74 52 28 3 50-1 73-14a250 250 0 0 0 88-78l-14 4c-18 5-27 6-43 6-34-2-54-13-79-45-30-38-45-77-53-136-7-52-5-99 8-211l5-48c2-20 2-69 0-80-3-24-10-46-24-73-17-36-29-55-67-103l-215-268-2-3 3-1 9-2 10-3 10-1c13 0 24-6 40-22 14-14 20-24 24-38 4-16 2-33-7-54l-25-53c-4-9-15-28-20-34l-2-3-3 7c-3 11-6 17-10 24-9 13-18 19-40 27-22 7-28 8-43 8-33 0-73-15-118-44-28-18-40-28-85-68-44-39-64-54-89-69-24-13-37-18-54-20-24-4-76-1-135 8a650 650 0 0 0-88 18l-17-7c-15-6-16-7-24-15-11-10-12-11-45-29-59-34-97-51-131-59-23-5-43-6-76-5zM858 1385a479 479 0 0 0 14 73l-12-3a319 319 0 0 0-19-8 606 606 0 0 0 12-55l4-17 1 10zm888 49a607 607 0 0 0 15 40 649 649 0 0 1-37 16 782 782 0 0 0 16-72l6 16zm-890 37c22 8 22 8 23 12a554 554 0 0 0 73 154l-11 1a214 214 0 0 0-90 23c-2 0-10-24-14-43a375 375 0 0 1 0-155l19 8zm927 46a1935 1935 0 0 1 63 142l-16-4-24-5a522 522 0 0 0-134-6l-12 3h-3l2-4a670 670 0 0 0 58-129c2-2 51-25 52-24l14 27zm-710 152 8 18 4 8-5-3c-3-4-4-6-7-16-6-20-6-22 0-7zm784 203c-3 8-14 27-21 36a139 139 0 0 1-73 49h-3l2-2a513 513 0 0 0 97-89l-2 6z"/><path d="M1636 1695c-5 1-9 2-11 4-6 5-13 20-18 38-3 15-4 25-4 43 0 17-1 16 12 13 13-2 21 0 25 8 3 7 3 12-3 18-3 4-10 7-22 9l-8 3 11 46c4 13 16 38 24 49 6 9 16 19 23 22 17 9 34-2 43-28 4-12 6-41 4-64l-2-30c-1-23-3-37-10-62-6-27-14-43-30-58-11-12-16-13-34-11zm-797 138 10 14 19 21c17 19 49 52 64 64 34 30 65 47 93 52l27 1c15-1 18-1 27-4a86 86 0 0 0 30-15l-14 5c-22 8-24 8-48 8-18 1-21 0-29-2-22-6-50-22-76-42a1345 1345 0 0 1-103-102zm821 241c-8 3-17 8-31 17l-18 10c-9 5-40 17-69 27l-64 23c-8 4-29 10-57 18a497 497 0 0 1-134 23c-2 1-2 1 2 2 6 2 18 1 36-1 29-4 55-8 80-14l28-7a731 731 0 0 0 146-47 642 642 0 0 0 23-8c1 1 1 2-3 9-6 12-17 28-23 35-3 4-8 8-11 9a378 378 0 0 1-48 19c-3 4 30-4 43-10l7-3c2 0-6 18-13 28-11 17-31 28-71 42l-31 11c0 2 20-2 35-7 30-10 50-21 62-31 7-7 18-23 29-43 33-60 37-64 80-84 15-7 20-14 15-18-2-3-6-2-13 0zm-594 85c-6 1-8 3-9 7-1 9 7 13 33 16 11 1 36 8 42 12l13 10c12 8 27 21 37 33l14 14c3-1 2-4-2-10l-5-8h13c13 0 22 0 22-2l-9-1c-19-2-32-6-46-16l-27-21a606 606 0 0 0 86 0 374 374 0 0 1-118-24c-22-9-37-12-44-10z"/><path d="M1393 2221a318 318 0 0 0-43 7 1083 1083 0 0 0 43-7zm-186 38c9 11 66 20 114 19a340 340 0 0 0 74-10 747 747 0 0 1-137 2c-14-2-16-3-36-9l-15-4c-2 0-2 0 0 2z"/></svg>
